<svg width="960" height="420" viewBox="0 0 960 420" fill="none" xmlns="http://www.w3.org/2000/svg">
  <rect width="960" height="420" fill="#EAF7F0"/>
  <path d="M0 300C143 232 233 266 346 211C460 155 578 84 746 119C838 138 904 185 960 224V420H0V300Z" fill="#D4EFE3"/>
  <circle cx="772" cy="118" r="56" fill="#F5C84B"/>
  <rect x="195" y="181" width="336" height="46" rx="8" transform="rotate(-35 195 181)" fill="#1F8A70"/>
  <rect x="516" y="107" width="190" height="54" rx="8" transform="rotate(28 516 107)" fill="#262626"/>
  <rect x="220" y="287" width="360" height="40" rx="8" fill="#FFFFFF"/>
  <rect x="259" y="246" width="40" height="82" rx="8" fill="#E85D4F"/>
  <path d="M651 285C651 254 676 229 707 229H771C802 229 827 254 827 285V328H651V285Z" fill="#1F8A70"/>
  <rect x="689" y="183" width="100" height="76" rx="38" fill="#262626"/>
  <path d="M710 327H768V372C768 388 755 401 739 401C723 401 710 388 710 372V327Z" fill="#E85D4F"/>
  <rect x="612" y="330" width="255" height="34" rx="8" fill="#FFFFFF"/>
</svg>
